<svg width="30" height="13" viewBox="0 0 30 13" fill="none" xmlns="http://www.w3.org/2000/svg">
<path d="M22.975 2.76036e-05C21.235 2.76036e-05 19.5917 0.676606 18.4196 1.84854L9.925 9.38756C9.15167 10.1608 8.12458 10.5836 7.025 10.5836C4.76542 10.5836 2.91667 8.7593 2.91667 6.50001C2.91667 4.24073 4.76542 2.41638 7.025 2.41638C8.12458 2.41638 9.15167 2.83924 9.97333 3.6608L11.3388 4.86898L13.1875 3.25002L11.6408 1.90895C11.0357 1.30163 10.3163 0.82024 9.52399 0.492589C8.73172 0.164939 7.88236 -0.00247294 7.025 2.76036e-05C3.42417 2.76036e-05 0.5 2.92381 0.5 6.50001C0.5 10.0762 3.42417 13 7.025 13C8.765 13 10.4083 12.3234 11.5804 11.1515L20.075 3.61247C20.8483 2.83924 21.8754 2.41638 22.975 2.41638C25.2346 2.41638 27.0833 4.24073 27.0833 6.50001C27.0833 8.7593 25.2346 10.5836 22.975 10.5836C21.8875 10.5836 20.8483 10.1608 20.0267 9.33923L18.625 8.11897L16.8125 9.73793L18.3592 11.0911C18.9659 11.6954 19.6859 12.174 20.478 12.4995C21.2701 12.8249 22.1186 12.9909 22.975 12.9879C26.5758 12.9879 29.5 10.0762 29.5 6.50001C29.5 2.87549 26.5758 2.76036e-05 22.975 2.76036e-05Z" fill="#02E4C0"/>
</svg>
