<svg width="24" height="24" viewBox="0 0 24 24" fill="none" xmlns="http://www.w3.org/2000/svg">
<path d="M6.7275 13.8016L10.2797 9.97481L2.51008 1.61813C1.90759 0.969072 0.865786 1.14486 0.489231 1.98323C-0.40195 3.99803 -0.0756023 6.47258 1.46827 8.14933L6.7275 13.8016ZM15.2377 11.3541C17.1581 12.3141 19.8567 11.638 21.8525 9.48802C24.2499 6.90529 24.7143 3.20022 22.8692 1.21247C21.0366 -0.76176 17.5974 -0.274963 15.1874 2.30776C13.1917 4.45778 12.5641 7.36504 13.4553 9.43393L2.08332 21.685C1.84862 21.9378 1.71678 22.2807 1.71678 22.6383C1.71678 22.9959 1.84862 23.3388 2.08332 23.5916C2.31801 23.8444 2.63632 23.9865 2.96822 23.9865C3.30012 23.9865 3.61843 23.8444 3.85313 23.5916L11.6227 15.2484L19.3798 23.6051C19.496 23.7303 19.6339 23.8296 19.7858 23.8974C19.9376 23.9651 20.1003 24 20.2647 24C20.429 24 20.5917 23.9651 20.7436 23.8974C20.8954 23.8296 21.0334 23.7303 21.1496 23.6051C21.2658 23.4799 21.358 23.3313 21.4209 23.1677C21.4837 23.0042 21.5161 22.8289 21.5161 22.6518C21.5161 22.4748 21.4837 22.2995 21.4209 22.1359C21.358 21.9723 21.2658 21.8237 21.1496 21.6985L13.3925 13.3418L15.2377 11.3541Z" fill="#02E4C0"/>
</svg>
