<svg width="27" height="26" viewBox="0 0 27 26" fill="none" xmlns="http://www.w3.org/2000/svg">
<path d="M11.303 11.609C12.629 13.741 12.434 16.25 10.848 17.264C9.262 18.252 6.896 17.329 5.557 15.197C4.231 13.065 4.439 10.53 6.025 9.542C7.611 8.554 9.977 9.477 11.303 11.609ZM13.5 20.475C16.1 20.475 16.75 19.5 16.75 19.5C16.75 19.5 16.1 22.1 13.5 22.1C10.9 22.1 10.25 19.539 10.25 19.5C10.25 19.5 10.9 20.475 13.5 20.475ZM20.975 9.542C22.561 10.53 22.769 13.065 21.443 15.197C20.104 17.329 17.738 18.252 16.152 17.264C14.566 16.25 14.371 13.741 15.697 11.609C17.023 9.477 19.389 8.554 20.975 9.542ZM13.5 23.4C16.75 23.4 23.9 16.718 23.9 11.7C23.9 6.682 19.233 2.6 13.5 2.6C7.767 2.6 3.1 6.682 3.1 11.7C3.1 16.718 10.25 23.4 13.5 23.4ZM13.5 0C20.65 0 26.5 5.252 26.5 11.7C26.5 17.004 19.116 26 13.5 26C7.884 26 0.5 17.004 0.5 11.7C0.5 5.252 6.35 0 13.5 0Z" fill="#02E4C0"/>
</svg>
